<svg width="25" height="23" viewBox="0 0 25 23" fill="none" xmlns="http://www.w3.org/2000/svg">
<path id="Vector" d="M22.6961 2.60038L16.6946 2.60041V1.2299C16.6946 0.849965 16.3591 0.542236 15.945 0.542236C15.5309 0.542236 15.1955 0.849965 15.1955 1.2299V2.60006H9.19918V1.2299C9.19918 0.849965 8.86376 0.542236 8.44964 0.542236C8.03552 0.542236 7.7001 0.849965 7.7001 1.2299V2.60006H1.70904C0.881173 2.60006 0.209961 3.21586 0.209961 3.97538V21.1669C0.209961 21.9264 0.881173 22.5422 1.70904 22.5422H22.6961C23.524 22.5422 24.1952 21.9264 24.1952 21.1669V3.97538C24.1952 3.21619 23.524 2.60038 22.6961 2.60038ZM22.6961 21.1669H1.70904V3.97538H7.7001V4.6682C7.7001 5.04811 8.03552 5.35586 8.44964 5.35586C8.86376 5.35586 9.19918 5.04811 9.19918 4.6682V3.97573H15.1955V4.66855C15.1955 5.04848 15.5309 5.35621 15.945 5.35621C16.3591 5.35621 16.6946 5.04848 16.6946 4.66855V3.97573H22.6961V21.1669ZM17.4494 11.54H18.9484C19.3622 11.54 19.698 11.2319 19.698 10.8523V9.477C19.698 9.09741 19.3622 8.78934 18.9484 8.78934H17.4494C17.0356 8.78934 16.6998 9.09741 16.6998 9.477V10.8523C16.6998 11.2319 17.0356 11.54 17.4494 11.54ZM17.4494 17.0409H18.9484C19.3622 17.0409 19.698 16.7332 19.698 16.3533V14.9779C19.698 14.5984 19.3622 14.2903 18.9484 14.2903H17.4494C17.0356 14.2903 16.6998 14.5984 16.6998 14.9779V16.3533C16.6998 16.7335 17.0356 17.0409 17.4494 17.0409ZM12.9521 14.2903H11.453C11.0393 14.2903 10.7035 14.5984 10.7035 14.9779V16.3533C10.7035 16.7332 11.0393 17.0409 11.453 17.0409H12.9521C13.3659 17.0409 13.7017 16.7332 13.7017 16.3533V14.9779C13.7017 14.5987 13.3659 14.2903 12.9521 14.2903ZM12.9521 8.78934H11.453C11.0393 8.78934 10.7035 9.09741 10.7035 9.477V10.8523C10.7035 11.2319 11.0393 11.54 11.453 11.54H12.9521C13.3659 11.54 13.7017 11.2319 13.7017 10.8523V9.477C13.7017 9.09706 13.3659 8.78934 12.9521 8.78934ZM6.95581 8.78934H5.45673C5.04299 8.78934 4.70719 9.09741 4.70719 9.477V10.8523C4.70719 11.2319 5.04299 11.54 5.45673 11.54H6.95581C7.36955 11.54 7.70535 11.2319 7.70535 10.8523V9.477C7.70535 9.09706 7.36955 8.78934 6.95581 8.78934ZM6.95581 14.2903H5.45673C5.04299 14.2903 4.70719 14.5984 4.70719 14.9779V16.3533C4.70719 16.7332 5.04299 17.0409 5.45673 17.0409H6.95581C7.36955 17.0409 7.70535 16.7332 7.70535 16.3533V14.9779C7.70535 14.5987 7.36955 14.2903 6.95581 14.2903Z" fill="black"/>
</svg>
