<svg width="24" height="25" viewBox="0 0 24 25" fill="none" xmlns="http://www.w3.org/2000/svg">
<path d="M8.25 20.6045C8.66421 20.6045 9 20.2687 9 19.8545C9 19.4403 8.66421 19.1045 8.25 19.1045C7.83579 19.1045 7.5 19.4403 7.5 19.8545C7.5 20.2687 7.83579 20.6045 8.25 20.6045Z" stroke="black" stroke-width="1.5" stroke-linecap="round" stroke-linejoin="round"/>
<path d="M18.75 20.6045C19.1642 20.6045 19.5 20.2687 19.5 19.8545C19.5 19.4403 19.1642 19.1045 18.75 19.1045C18.3358 19.1045 18 19.4403 18 19.8545C18 20.2687 18.3358 20.6045 18.75 20.6045Z" stroke="black" stroke-width="1.5" stroke-linecap="round" stroke-linejoin="round"/>
<path d="M2.25 4.10449H5.25L7.5 16.8545H19.5" stroke="black" stroke-width="1.5" stroke-linecap="round" stroke-linejoin="round"/>
<path d="M7.5 12.8545H19.1925C19.2792 12.8546 19.3633 12.8246 19.4304 12.7696C19.4975 12.7146 19.5434 12.6381 19.5605 12.5531L20.9105 5.80309C20.9214 5.74866 20.92 5.69249 20.9066 5.63863C20.8931 5.58478 20.8679 5.53458 20.8327 5.49167C20.7975 5.44875 20.7532 5.41418 20.703 5.39046C20.6528 5.36674 20.598 5.35445 20.5425 5.35449H6" stroke="black" stroke-width="1.5" stroke-linecap="round" stroke-linejoin="round"/>
</svg>
