<svg width="117" height="117" viewBox="0 0 117 117" fill="none" xmlns="http://www.w3.org/2000/svg">
<path d="M58.4997 0.583252C26.6455 0.583252 0.583008 26.6458 0.583008 58.4999C0.583008 90.3541 26.6455 116.417 58.4997 116.417C90.3538 116.417 116.416 90.3541 116.416 58.4999C116.416 26.6458 90.3538 0.583252 58.4997 0.583252ZM58.4997 104.833C32.9584 104.833 12.1663 84.0412 12.1663 58.4999C12.1663 32.9587 32.9584 12.1666 58.4997 12.1666C84.0409 12.1666 104.833 32.9587 104.833 58.4999C104.833 84.0412 84.0409 104.833 58.4997 104.833ZM85.0834 32.9007L46.9163 71.0678L31.9159 56.1253L23.7497 64.2916L46.9163 87.4583L93.2497 41.1249L85.0834 32.9007Z" fill="#249B3E"/>
</svg>
