<svg width="25" height="25" viewBox="0 0 25 25" fill="none" xmlns="http://www.w3.org/2000/svg">
<g id="emojione-monotone:pen" clip-path="url(#clip0_450_4222)">
<path id="Vector" d="M23.6755 1.32371C22.9892 0.636991 21.9068 0.605351 21.172 1.20965L20.8482 0.885819L19.9618 1.77684L20.0368 1.85262L19.722 2.14715L19.6505 2.0784C18.9751 1.40223 18.1966 0.701054 17.1603 1.1198C15.7505 1.69129 15.0771 4.74207 14.2974 5.89637C13.6169 6.90027 11.9099 7.96355 10.3837 8.76473C10.4599 8.84012 10.6103 9.0659 10.7103 9.09129C11.1345 8.90418 11.5665 8.73738 11.9864 8.54207C12.863 8.13465 13.7161 7.66004 14.47 7.05027C16.013 5.80144 16.6349 2.05691 17.736 1.98348C18.1966 1.95027 18.6462 2.37801 19.0275 2.79676L11.0525 10.2538L11.3673 10.5686L3.67472 18.2745L1.25753 22.5401L1.57706 22.8596L0.890344 23.771C0.773547 23.9085 0.746203 24.0889 0.829407 24.1721C0.911047 24.253 1.09191 24.2257 1.22823 24.1081L2.14073 23.4237L2.45988 23.7425L6.7255 21.3257L14.4189 13.6198L14.4251 13.6261L14.7462 13.9471L23.1419 4.95691L23.2275 5.04246L24.113 4.15144L23.79 3.82801C24.3946 3.09324 24.3622 2.01082 23.6755 1.32371ZM2.52628 23.2565L1.74386 22.4741L3.76144 18.9139L6.08644 21.2393L2.52628 23.2565ZM14.7466 13.3952L11.6067 10.255L12.1919 9.67684L15.3282 12.8128L14.7466 13.3952ZM23.2267 4.48933L20.5138 1.77644L20.8489 1.43934L23.561 4.15223L23.2267 4.48933Z" fill="#414141"/>
</g>
<defs>
<clipPath id="clip0_450_4222">
<rect width="25" height="25" fill="white"/>
</clipPath>
</defs>
</svg>
