<svg width="20" height="17" viewBox="0 0 20 17" fill="none" xmlns="http://www.w3.org/2000/svg">
<path opacity="0.25" fill-rule="evenodd" clip-rule="evenodd" d="M10.5516 12.0872C10.204 11.8224 10 11.4105 10 10.9736V0.899685C10 0.486339 10.435 0.217497 10.8047 0.402351C10.9302 0.465117 11.0274 0.573034 11.0767 0.704447L12.1593 3.59157C12.3642 4.138 12.8866 4.5 13.4702 4.5H15.8C17.1454 4.5 17.7163 6.21275 16.64 7.02L14.8392 8.37061C14.3418 8.74366 14.15 9.40004 14.3683 9.98219L15.2937 12.4497C15.7869 13.7651 14.2518 14.9063 13.1344 14.0549L10.5516 12.0872Z" fill="black"/>
<path fill-rule="evenodd" clip-rule="evenodd" d="M10 10.9736C10 11.4106 9.79599 11.8224 9.44843 12.0872L6.86564 14.055C5.74817 14.9063 4.21308 13.7651 4.70635 12.4498L5.63168 9.98221C5.84999 9.40006 5.65821 8.74368 5.16082 8.37064L3.36 7.02003C2.28367 6.21278 2.85458 4.50003 4.2 4.50003H6.5298C7.11338 4.50003 7.63575 4.13802 7.84066 3.5916L8.92334 0.704466C8.97261 0.573057 9.06976 0.465143 9.19529 0.402376C9.565 0.217512 10 0.486352 10 0.899703V5.00003V10.9736Z" fill="#FCB343"/>
</svg>
