<svg width="28" height="21" viewBox="0 0 28 21" fill="none" xmlns="http://www.w3.org/2000/svg">
<path fill-rule="evenodd" clip-rule="evenodd" d="M5 5.825C5 5.6062 5.09383 5.39635 5.26086 5.24164C5.42788 5.08692 5.65442 5 5.89062 5H23.1094C23.3456 5 23.5721 5.08692 23.7391 5.24164C23.9062 5.39635 24 5.6062 24 5.825C24 6.0438 23.9062 6.25365 23.7391 6.40836C23.5721 6.56308 23.3456 6.65 23.1094 6.65H5.89062C5.65442 6.65 5.42788 6.56308 5.26086 6.40836C5.09383 6.25365 5 6.0438 5 5.825ZM5 10.5C5 10.2812 5.09383 10.0714 5.26086 9.91664C5.42788 9.76192 5.65442 9.675 5.89062 9.675H23.1094C23.3456 9.675 23.5721 9.76192 23.7391 9.91664C23.9062 10.0714 24 10.2812 24 10.5C24 10.7188 23.9062 10.9286 23.7391 11.0834C23.5721 11.2381 23.3456 11.325 23.1094 11.325H5.89062C5.65442 11.325 5.42788 11.2381 5.26086 11.0834C5.09383 10.9286 5 10.7188 5 10.5ZM5.89062 14.35C5.65442 14.35 5.42788 14.4369 5.26086 14.5916C5.09383 14.7464 5 14.9562 5 15.175C5 15.3938 5.09383 15.6036 5.26086 15.7584C5.42788 15.9131 5.65442 16 5.89062 16H23.1094C23.3456 16 23.5721 15.9131 23.7391 15.7584C23.9062 15.6036 24 15.3938 24 15.175C24 14.9562 23.9062 14.7464 23.7391 14.5916C23.5721 14.4369 23.3456 14.35 23.1094 14.35H5.89062Z" fill="black"/>
<rect x="0.5" y="0.5" width="27" height="20" rx="3.5" stroke="black"/>
</svg>
