<svg width="20" height="20" viewBox="0 0 20 20" fill="none" xmlns="http://www.w3.org/2000/svg">
<path id="Vector" d="M3.76923 10.6923H5.15385C5.52107 10.6923 5.87325 10.8382 6.13292 11.0979C6.39258 11.3575 6.53846 11.7097 6.53846 12.0769V17.6154C6.53846 17.9826 6.39258 18.3348 6.13292 18.5945C5.87325 18.8541 5.52107 19 5.15385 19H2.38462C2.01739 19 1.66521 18.8541 1.40554 18.5945C1.14588 18.3348 1 17.9826 1 17.6154V10C1 7.61305 1.94821 5.32387 3.63604 3.63604C5.32387 1.94821 7.61305 1 10 1C12.3869 1 14.6761 1.94821 16.364 3.63604C18.0518 5.32387 19 7.61305 19 10V17.6154C19 17.9826 18.8541 18.3348 18.5945 18.5945C18.3348 18.8541 17.9826 19 17.6154 19H14.8462C14.4789 19 14.1267 18.8541 13.8671 18.5945C13.6074 18.3348 13.4615 17.9826 13.4615 17.6154V12.0769C13.4615 11.7097 13.6074 11.3575 13.8671 11.0979C14.1267 10.8382 14.4789 10.6923 14.8462 10.6923H16.2308" stroke="#008ECC" stroke-width="2" stroke-linecap="round" stroke-linejoin="round"/>
</svg>
