<svg width="12" height="15" viewBox="0 0 12 15" fill="none" xmlns="http://www.w3.org/2000/svg">
<path d="M5.99973 8.5715C5.46033 8.5715 4.93304 8.4144 4.48454 8.12008C4.03605 7.82575 3.68648 7.40742 3.48006 6.91797C3.27364 6.42853 3.21963 5.88996 3.32487 5.37037C3.4301 4.85077 3.68985 4.3735 4.07126 3.99889C4.45268 3.62429 4.93863 3.36918 5.46767 3.26582C5.99671 3.16247 6.54507 3.21552 7.04341 3.41825C7.54176 3.62099 7.9677 3.9643 8.26737 4.40479C8.56705 4.84528 8.727 5.36316 8.727 5.89293C8.72614 6.60307 8.43852 7.28388 7.92725 7.78603C7.41597 8.28817 6.72278 8.57065 5.99973 8.5715ZM5.99973 4.28579C5.67609 4.28579 5.35972 4.38004 5.09062 4.55664C4.82152 4.73323 4.61178 4.98423 4.48793 5.2779C4.36408 5.57157 4.33167 5.89471 4.39481 6.20647C4.45795 6.51822 4.6138 6.80459 4.84265 7.02935C5.0715 7.25411 5.36307 7.40718 5.68049 7.46919C5.99792 7.5312 6.32694 7.49938 6.62594 7.37773C6.92495 7.25609 7.18051 7.0501 7.36032 6.78581C7.54012 6.52152 7.63609 6.21079 7.63609 5.89293C7.63566 5.46682 7.46312 5.05828 7.15634 4.75698C6.84955 4.45567 6.43359 4.28621 5.99973 4.28579Z" fill="#808080"/>
<path d="M6 15L1.39855 9.67018C1.33461 9.59015 1.27134 9.50961 1.20873 9.42857C0.422723 8.41167 -0.00189883 7.16958 6.38338e-06 5.89286C6.38338e-06 4.32997 0.632147 2.8311 1.75736 1.72598C2.88258 0.620853 4.4087 0 6 0C7.5913 0 9.11742 0.620853 10.2426 1.72598C11.3679 2.8311 12 4.32997 12 5.89286C12.0019 7.169 11.5775 8.41053 10.7918 9.42696L10.7913 9.42857C10.7913 9.42857 10.6276 9.63964 10.6031 9.66804L6 15ZM2.07928 8.78304C2.08037 8.78304 2.20691 8.94804 2.23582 8.98339L6 13.3436L9.76909 8.9775C9.79309 8.94804 9.92072 8.78196 9.92127 8.78143C10.5633 7.9506 10.9103 6.93591 10.9091 5.89286C10.9091 4.61413 10.3919 3.38779 9.47125 2.48359C8.55062 1.5794 7.30197 1.07143 6 1.07143C4.69803 1.07143 3.44938 1.5794 2.52875 2.48359C1.60812 3.38779 1.09091 4.61413 1.09091 5.89286C1.08977 6.93656 1.43661 7.95183 2.07928 8.78304Z" fill="#808080"/>
</svg>
