<svg width="14" height="16" viewBox="0 0 14 16" fill="none" xmlns="http://www.w3.org/2000/svg">
<path d="M7 3.6C7.66304 3.6 8.29893 3.81071 8.76777 4.18579C9.23661 4.56086 9.5 5.06957 9.5 5.6C9.5 5.86264 9.43534 6.12272 9.3097 6.36537C9.18406 6.60802 8.99991 6.8285 8.76777 7.01421C8.53562 7.19993 8.26002 7.34725 7.95671 7.44776C7.65339 7.54827 7.3283 7.6 7 7.6C6.33696 7.6 5.70107 7.38929 5.23223 7.01421C4.76339 6.63914 4.5 6.13043 4.5 5.6C4.5 5.06957 4.76339 4.56086 5.23223 4.18579C5.70107 3.81071 6.33696 3.6 7 3.6ZM7 0C8.85652 0 10.637 0.589998 11.9497 1.6402C13.2625 2.69041 14 4.11479 14 5.6C14 9.8 7 16 7 16C7 16 0 9.8 0 5.6C0 4.11479 0.737498 2.69041 2.05025 1.6402C3.36301 0.589998 5.14348 0 7 0ZM7 1.6C5.67392 1.6 4.40215 2.02143 3.46447 2.77157C2.52678 3.52172 2 4.53913 2 5.6C2 6.4 2 8 7 13.368C12 8 12 6.4 12 5.6C12 4.53913 11.4732 3.52172 10.5355 2.77157C9.59785 2.02143 8.32608 1.6 7 1.6Z" fill="#008ECC"/>
</svg>
