<svg width="21" height="20" viewBox="0 0 21 20" fill="none" xmlns="http://www.w3.org/2000/svg">
<path id="Vector" d="M14.6821 5L10.1214 1M10.1214 1L5.56069 5M10.1214 1L10.1214 15M14.6821 9L15.8223 9C16.7294 9 17.5995 9.31607 18.2409 9.87868C18.8824 10.4413 19.2428 11.2043 19.2428 12L19.2428 16C19.2428 16.7956 18.8824 17.5587 18.2409 18.1213C17.5995 18.6839 16.7294 19 15.8223 19L4.42052 19C3.51334 19 2.64332 18.6839 2.00185 18.1213C1.36038 17.5587 1 16.7956 1 16L1 12C1 11.2044 1.36037 10.4413 2.00185 9.87868C2.64332 9.31607 3.51334 9 4.42052 9L5.56069 9" stroke="#008ECC" stroke-width="2" stroke-linecap="round" stroke-linejoin="round"/>
</svg>
