<svg width="26" height="25" viewBox="0 0 26 25" fill="none" xmlns="http://www.w3.org/2000/svg">
<path id="Vector" opacity="0.25" d="M24.673 10.9993C25.7437 10.1894 25.1709 8.48276 23.8284 8.48276H17.5826C16.9686 8.48276 16.4263 8.08279 16.245 7.49627L14.3375 1.32638C13.9309 0.0110605 12.0691 0.0110559 11.6625 1.32637L9.75498 7.49627C9.57365 8.08279 9.03136 8.48276 8.41744 8.48276H2.12961C0.791415 8.48276 0.215919 10.1803 1.27822 10.9941L6.47803 14.9776C6.94218 15.3332 7.13648 15.9397 6.96529 16.4988L5.02963 22.8207C4.63083 24.1232 6.13834 25.1704 7.21968 24.342L12.1486 20.566C12.651 20.1812 13.349 20.1812 13.8514 20.566L18.764 24.3295C19.8469 25.159 21.3559 24.1079 20.953 22.8046L18.99 16.4551C18.8159 15.8922 19.013 15.2805 19.4829 14.925L24.673 10.9993Z" fill="black"/>
</svg>
